<svg width="27" height="29" viewBox="0 0 27 29" fill="none" xmlns="http://www.w3.org/2000/svg">
<path fill-rule="evenodd" clip-rule="evenodd" d="M11.1958 16.6823C11.1955 16.5605 11.1698 16.4402 11.1203 16.3289C11.0709 16.2177 10.9987 16.118 10.9085 16.0362L3.86479 9.68372C3.68485 9.52021 3.54095 9.321 3.44227 9.09879C3.34359 8.87657 3.2923 8.63624 3.29167 8.3931V5.07102C3.29167 4.11143 4.07042 3.33268 5.03 3.33268H21.97C22.9296 3.33268 23.7083 4.11143 23.7083 5.07102V8.43831C23.7083 8.90497 23.5217 9.34977 23.1892 9.67789L16.7229 16.0406C16.6409 16.1217 16.5758 16.2182 16.5313 16.3246C16.4867 16.431 16.4636 16.5451 16.4633 16.6604V22.3377C16.4633 22.6148 16.3321 22.8743 16.1104 23.0377L12.5813 25.6437C12.4518 25.7393 12.2983 25.7971 12.138 25.8106C11.9776 25.8241 11.8167 25.7928 11.673 25.7202C11.5294 25.6477 11.4087 25.5367 11.3245 25.3996C11.2402 25.2624 11.1957 25.1046 11.1958 24.9437V16.6823ZM19.38 17.5179L25.2352 11.756C26.1248 10.881 26.625 9.68518 26.625 8.43831V5.07102C26.6254 4.45961 26.5052 3.85411 26.2714 3.28917C26.0376 2.72423 25.6948 2.21091 25.2624 1.77858C24.8301 1.34625 24.3168 1.00338 23.7518 0.769576C23.1869 0.535776 22.5814 0.415633 21.97 0.416017H5.03C4.41859 0.415633 3.8131 0.535776 3.24816 0.769576C2.68321 1.00338 2.1699 1.34625 1.73756 1.77858C1.30523 2.21091 0.96236 2.72423 0.728561 3.28917C0.494761 3.85411 0.374617 4.45961 0.375001 5.07102V8.3931C0.375765 9.04458 0.512925 9.68868 0.777656 10.2839C1.04239 10.8792 1.42882 11.4125 1.91208 11.8493L8.27771 17.5923V24.9437C8.27771 28.05 11.8127 29.835 14.3123 27.9902L17.8415 25.3841C18.3182 25.0319 18.7057 24.5729 18.9729 24.0438C19.2401 23.5147 19.3795 22.9304 19.38 22.3377V17.5179Z" fill="#5C8DB9"/>
<path fill-rule="evenodd" clip-rule="evenodd" d="M0.375 7.70833C0.375 7.32156 0.528645 6.95063 0.802136 6.67714C1.07563 6.40365 1.44656 6.25 1.83333 6.25H23.7083C24.0951 6.25 24.466 6.40365 24.7395 6.67714C25.013 6.95063 25.1667 7.32156 25.1667 7.70833C25.1667 8.09511 25.013 8.46604 24.7395 8.73953C24.466 9.01302 24.0951 9.16667 23.7083 9.16667H1.83333C1.44656 9.16667 1.07563 9.01302 0.802136 8.73953C0.528645 8.46604 0.375 8.09511 0.375 7.70833Z" fill="#5C8DB9"/>
</svg>
